<svg width="202" height="184" viewBox="0 0 202 184" fill="none" xmlns="http://www.w3.org/2000/svg">
<path d="M75.4598 4.96115C36.6851 22.6071 28.7909 76.2416 60.8322 103.639C84.0506 123.607 115.628 123.607 138.846 103.639C170.887 76.2416 162.993 22.6071 124.218 4.96115C111.681 -0.843453 87.9977 -0.843453 75.4598 4.96115ZM111.448 5.42551C133.041 10.3014 151.384 29.5726 154.635 50.7014C157.189 68.1152 151.848 83.2071 138.382 97.1382C115.163 120.821 84.515 120.821 61.2966 97.1382C52.0092 87.6186 48.7587 82.2784 46.4368 72.7588C39.4713 43.0393 56.4207 14.0163 85.4437 6.12206C98.9104 2.40712 98.6782 2.40712 111.448 5.42551Z" fill="black"/>
<path d="M75.9241 24.2324C74.0666 29.3404 80.8 51.3979 90.7839 72.2944C96.8207 85.5289 99.6069 94.1197 98.9103 98.0669C97.7494 103.871 97.7494 103.871 100.303 98.5312C101.697 95.745 104.251 93.4232 106.108 93.4232C107.733 93.4232 109.126 91.5657 109.126 89.2439C109.126 87.1542 113.538 72.5266 118.878 56.7381C127.469 32.3588 128.398 27.9473 125.379 26.0898C121.2 23.5358 119.807 25.6255 112.609 46.9864C109.591 55.8094 107.733 64.8646 108.198 67.1864C108.894 69.5082 107.965 73.2232 106.108 75.545C103.322 79.4921 102.393 77.6347 95.8919 58.1312C91.7126 46.2898 87.7655 33.0554 87.0689 28.8761C85.4436 21.214 78.2459 18.1956 75.9241 24.2324Z" fill="black"/>
<path d="M0 159.596C0 179.796 0.696552 183.975 3.48276 183.975C6.03678 183.975 6.96552 181.189 6.96552 172.366C6.96552 162.382 7.66207 160.757 11.6092 160.757C14.1632 160.757 16.2529 159.596 16.2529 158.435C16.2529 157.042 14.1632 156.113 11.6092 156.113C7.89425 156.113 6.96552 154.488 6.96552 147.986C6.96552 140.789 7.66207 139.86 12.7701 139.86C16.0207 139.86 18.5747 138.699 18.5747 137.538C18.5747 136.145 14.3954 135.216 9.28736 135.216H0V159.596Z" fill="black"/>
<path d="M24.8437 136.842C22.0575 139.396 22.9862 142.182 26.7011 142.182C28.5586 142.182 30.1839 140.557 30.1839 138.699C30.1839 134.984 27.3977 134.055 24.8437 136.842Z" fill="black"/>
<path d="M113.77 159.828C113.77 178.403 114.467 184.207 116.789 183.511C118.182 182.814 119.807 177.706 120.271 171.669C120.968 161.918 121.664 160.757 126.772 160.757C131.88 160.757 132.345 161.685 132.345 172.366C132.345 181.189 133.274 183.975 135.828 183.975C138.614 183.975 139.31 179.796 139.31 159.596C139.31 139.396 138.614 135.216 135.828 135.216C133.274 135.216 132.345 138.003 132.345 145.665C132.345 155.184 131.88 156.113 126.54 156.113C121.2 156.113 120.736 155.184 120.736 145.665C120.736 138.003 119.807 135.216 117.253 135.216C114.467 135.216 113.77 139.396 113.77 159.828Z" fill="black"/>
<path d="M174.138 138.699C174.138 140.557 175.299 142.182 176.46 142.182C177.853 142.182 178.782 140.557 178.782 138.699C178.782 136.842 177.853 135.216 176.46 135.216C175.299 135.216 174.138 136.842 174.138 138.699Z" fill="black"/>
<path d="M81.0322 143.807C79.1748 157.506 82.4254 180.028 86.3725 182.582C88.4621 183.743 91.2483 183.975 92.1771 183.046C93.1058 181.885 92.6414 180.492 91.2483 180.028C89.1587 179.331 88.2299 174.223 88.2299 165.4C88.2299 156.809 89.3909 151.469 91.2483 150.773C93.5702 149.844 93.5702 149.38 91.2483 149.38C89.6231 149.147 88.2299 146.593 88.2299 143.343C88.2299 135.448 81.961 135.913 81.0322 143.807Z" fill="black"/>
<path d="M59.9034 149.38C53.8666 152.862 54.7954 158.435 63.154 167.026C69.1908 173.295 69.8873 175.152 67.5655 177.706C65.2436 180.028 64.0827 179.563 61.5287 176.313C59.439 173.527 58.0459 173.062 56.885 174.688C52.9379 181.189 65.708 186.993 71.5126 181.189C75.9241 176.777 74.7632 172.134 68.262 165.168C64.0827 160.757 62.6896 157.506 63.6183 154.488C65.2436 150.54 65.4758 150.54 68.4942 154.488C70.1195 156.809 72.2091 157.738 72.9057 156.345C74.2988 154.255 68.4942 146.826 65.4758 146.826C64.5471 146.826 61.9931 147.986 59.9034 149.38Z" fill="black"/>
<path d="M153.241 148.451C149.526 149.844 146.276 153.791 146.276 156.577C146.276 160.06 152.777 158.435 154.17 154.72C154.867 152.862 156.492 151.934 157.885 152.63C162.064 155.184 160.439 161.918 155.099 164.239C141.864 170.276 144.186 182.582 158.814 183.046L167.172 183.278V168.651C167.172 150.773 162.993 144.736 153.241 148.451ZM158.117 177.706C154.402 181.421 152.08 173.062 155.795 168.419C158.814 164.936 159.046 165.168 159.743 170.044C160.207 172.83 159.51 176.313 158.117 177.706Z" fill="black"/>
<path d="M197.589 148.915C195.731 150.076 192.945 150.54 191.087 149.844C188.766 148.915 188.069 152.398 188.069 166.329C188.069 176.545 188.998 183.975 190.391 183.975C191.784 183.975 192.713 177.706 192.713 169.812C192.713 157.738 193.409 155.416 197.356 154.488C199.91 153.791 202 151.701 202 150.076C202 146.361 201.768 146.361 197.589 148.915Z" fill="black"/>
<path d="M23.2184 166.561C23.2184 180.492 23.9149 183.975 26.7011 183.975C29.4873 183.975 30.1839 180.492 30.1839 166.561C30.1839 152.63 29.4873 149.147 26.7011 149.147C23.9149 149.147 23.2184 152.63 23.2184 166.561Z" fill="black"/>
<path d="M37.1494 166.793C37.1494 180.492 37.846 183.975 40.6322 183.975C43.4184 183.975 44.1149 180.957 44.1149 169.812C44.1149 157.738 44.8115 155.416 48.7586 154.488C56.1885 152.63 54.0988 149.612 45.2759 149.612H37.1494V166.793Z" fill="black"/>
<path d="M174.138 166.561C174.138 176.545 175.067 183.975 176.46 183.975C177.853 183.975 178.782 176.545 178.782 166.561C178.782 156.577 177.853 149.147 176.46 149.147C175.067 149.147 174.138 156.577 174.138 166.561Z" fill="black"/>
</svg>
