<?xml version="1.0" standalone="no"?>
<!DOCTYPE svg PUBLIC "-//W3C//DTD SVG 20010904//EN"
 "http://www.w3.org/TR/2001/REC-SVG-20010904/DTD/svg10.dtd">
<svg version="1.0" xmlns="http://www.w3.org/2000/svg"
 width="200.000000pt" height="200.000000pt" viewBox="0 0 200.000000 200.000000"
 preserveAspectRatio="xMidYMid meet">

<g transform="translate(0.000000,200.000000) scale(0.100000,-0.100000)"
fill="#000000" stroke="none">
<path d="M895 1451 c-167 -76 -201 -307 -63 -425 100 -86 236 -86 336 0 138
118 104 349 -63 425 -54 25 -156 25 -210 0z m155 -2 c93 -21 172 -104 186
-195 11 -75 -12 -140 -70 -200 -100 -102 -232 -102 -332 0 -40 41 -54 64 -64
105 -30 128 43 253 168 287 58 16 57 16 112 3z"/>
<path d="M897 1368 c-8 -22 21 -117 64 -207 26 -57 38 -94 35 -111 -5 -25 -5
-25 6 -2 6 12 17 22 25 22 7 0 13 8 13 18 0 9 19 72 42 140 37 105 41 124 28
132 -18 11 -24 2 -55 -90 -13 -38 -21 -77 -19 -87 3 -10 -1 -26 -9 -36 -12
-17 -16 -9 -44 75 -18 51 -35 108 -38 126 -7 33 -38 46 -48 20z"/>
<path d="M570 785 c0 -87 3 -105 15 -105 11 0 15 12 15 50 0 43 3 50 20 50 11
0 20 5 20 10 0 6 -9 10 -20 10 -16 0 -20 7 -20 35 0 31 3 35 25 35 14 0 25 5
25 10 0 6 -18 10 -40 10 l-40 0 0 -105z"/>
<path d="M677 883 c-12 -11 -8 -23 8 -23 8 0 15 7 15 15 0 16 -12 20 -23 8z"/>
<path d="M1060 784 c0 -80 3 -105 13 -102 6 3 13 25 15 51 3 42 6 47 28 47 22
0 24 -4 24 -50 0 -38 4 -50 15 -50 12 0 15 18 15 105 0 87 -3 105 -15 105 -11
0 -15 -12 -15 -45 0 -41 -2 -45 -25 -45 -23 0 -25 4 -25 45 0 33 -4 45 -15 45
-12 0 -15 -18 -15 -106z"/>
<path d="M1320 875 c0 -8 5 -15 10 -15 6 0 10 7 10 15 0 8 -4 15 -10 15 -5 0
-10 -7 -10 -15z"/>
<path d="M919 853 c-8 -59 6 -156 23 -167 9 -5 21 -6 25 -2 4 5 2 11 -4 13 -9
3 -13 25 -13 63 0 37 5 60 13 63 10 4 10 6 0 6 -7 1 -13 12 -13 26 0 34 -27
32 -31 -2z"/>
<path d="M828 829 c-26 -15 -22 -39 14 -76 26 -27 29 -35 19 -46 -10 -10 -15
-8 -26 6 -9 12 -15 14 -20 7 -17 -28 38 -53 63 -28 19 19 14 39 -14 69 -18 19
-24 33 -20 46 7 17 8 17 21 0 7 -10 16 -14 19 -8 6 9 -19 41 -32 41 -4 0 -15
-5 -24 -11z"/>
<path d="M1230 833 c-16 -6 -30 -23 -30 -35 0 -15 28 -8 34 8 3 8 10 12 16 9
18 -11 11 -40 -12 -50 -57 -26 -47 -79 16 -81 l36 -1 0 63 c0 77 -18 103 -60
87z m21 -126 c-16 -16 -26 20 -10 40 13 15 14 14 17 -7 2 -12 -1 -27 -7 -33z"/>
<path d="M1421 831 c-8 -5 -20 -7 -28 -4 -10 4 -13 -11 -13 -71 0 -44 4 -76
10 -76 6 0 10 27 10 61 0 52 3 62 20 66 11 3 20 12 20 19 0 16 -1 16 -19 5z"/>
<path d="M670 755 c0 -60 3 -75 15 -75 12 0 15 15 15 75 0 60 -3 75 -15 75
-12 0 -15 -15 -15 -75z"/>
<path d="M730 754 c0 -59 3 -74 15 -74 12 0 15 13 15 61 0 52 3 62 20 66 32 8
23 21 -15 21 l-35 0 0 -74z"/>
<path d="M1320 755 c0 -43 4 -75 10 -75 6 0 10 32 10 75 0 43 -4 75 -10 75 -6
0 -10 -32 -10 -75z"/>
</g>
</svg>
